<svg width="981" height="297" viewBox="0 0 981 297" fill="none" xmlns="http://www.w3.org/2000/svg">
<mask id="mask0_2_81" style="mask-type:alpha" maskUnits="userSpaceOnUse" x="0" y="0" width="981" height="297">
<rect width="981" height="297" rx="63" fill="#D9D9D9"/>
</mask>
<g mask="url(#mask0_2_81)">
<rect width="981" height="297" rx="63" fill="black" fill-opacity="0.12"/>
<rect x="502" y="25" width="479" height="39" rx="9" fill="#FFB486"/>
<rect x="-20" y="241" width="896" height="17" rx="8.5" fill="#FF6F6F"/>
<rect x="527" y="74" width="473" height="30" rx="9" fill="#F89B9C"/>
<rect x="601" y="204" width="411" height="30" rx="9" fill="#82FA91"/>
<path d="M917.626 175.598C913.945 175.598 911.047 174.667 908.932 172.806C906.816 170.902 905.758 168.342 905.758 165.127C905.758 161.869 906.816 159.309 908.932 157.447C911.047 155.586 913.903 154.655 917.499 154.655H928.288V151.164C928.288 149.007 927.632 147.357 926.321 146.214C925.052 145.03 923.232 144.437 920.863 144.437C918.79 144.437 917.055 144.882 915.659 145.77C914.263 146.616 913.459 147.78 913.247 149.261H907.535C907.916 146.257 909.334 143.866 911.788 142.089C914.241 140.312 917.309 139.424 920.99 139.424C925.009 139.424 928.182 140.46 930.509 142.533C932.836 144.606 934 147.42 934 150.974V174.964H928.415V168.3H927.463L928.415 167.348C928.415 169.886 927.421 171.896 925.432 173.377C923.486 174.858 920.884 175.598 917.626 175.598ZM919.022 171.092C921.73 171.092 923.951 170.415 925.686 169.061C927.421 167.707 928.288 165.973 928.288 163.857V158.907H917.626C915.722 158.907 914.22 159.436 913.12 160.494C912.02 161.551 911.47 162.99 911.47 164.809C911.47 166.756 912.126 168.3 913.438 169.442C914.791 170.542 916.653 171.092 919.022 171.092Z" fill="#FFF06F"/>
<path d="M887.379 174.964C885.348 174.964 883.571 174.562 882.048 173.758C880.524 172.954 879.34 171.811 878.494 170.331C877.647 168.85 877.224 167.115 877.224 165.127V133.839H865.483V128.635H882.936V165.127C882.936 166.565 883.338 167.707 884.142 168.554C884.946 169.358 886.025 169.759 887.379 169.759H898.485V174.964H887.379Z" fill="#FFF06F"/>
<path d="M832.57 174.964V140.058H838.155V146.722H839.488L837.647 150.847C837.647 147.082 838.451 144.247 840.059 142.343C841.709 140.397 844.142 139.424 847.357 139.424C851.038 139.424 853.958 140.587 856.115 142.914C858.316 145.199 859.416 148.309 859.416 152.243V154.338H853.704V152.751C853.704 150.001 853.027 147.907 851.673 146.468C850.361 144.987 848.479 144.247 846.025 144.247C843.613 144.247 841.709 144.987 840.313 146.468C838.959 147.949 838.282 150.043 838.282 152.751V174.964H832.57Z" fill="#FFF06F"/>
<path d="M806.511 175.471C803.719 175.471 801.307 174.942 799.276 173.885C797.245 172.827 795.659 171.304 794.516 169.315C793.416 167.284 792.866 164.894 792.866 162.144V152.878C792.866 150.086 793.416 147.695 794.516 145.707C795.659 143.718 797.245 142.195 799.276 141.137C801.307 140.079 803.719 139.55 806.511 139.55C809.304 139.55 811.715 140.079 813.746 141.137C815.777 142.195 817.342 143.718 818.442 145.707C819.585 147.695 820.156 150.064 820.156 152.815V162.144C820.156 164.894 819.585 167.284 818.442 169.315C817.342 171.304 815.777 172.827 813.746 173.885C811.715 174.942 809.304 175.471 806.511 175.471ZM806.511 170.394C809.007 170.394 810.954 169.696 812.35 168.3C813.746 166.904 814.444 164.852 814.444 162.144V152.878C814.444 150.17 813.746 148.118 812.35 146.722C810.954 145.326 809.007 144.628 806.511 144.628C804.057 144.628 802.111 145.326 800.672 146.722C799.276 148.118 798.578 150.17 798.578 152.878V162.144C798.578 164.852 799.276 166.904 800.672 168.3C802.111 169.696 804.057 170.394 806.511 170.394Z" fill="#FFF06F"/>
<path d="M768.711 175.598C765.919 175.598 763.486 175.069 761.413 174.012C759.382 172.954 757.795 171.431 756.653 169.442C755.553 167.411 755.003 165.021 755.003 162.271V141.327C755.003 138.535 755.553 136.145 756.653 134.156C757.795 132.167 759.382 130.644 761.413 129.587C763.486 128.529 765.919 128 768.711 128C771.504 128 773.915 128.55 775.946 129.65C777.977 130.708 779.543 132.231 780.643 134.219C781.743 136.208 782.293 138.577 782.293 141.327H776.581C776.581 138.704 775.883 136.695 774.487 135.298C773.133 133.86 771.208 133.141 768.711 133.141C766.215 133.141 764.248 133.839 762.809 135.235C761.413 136.631 760.715 138.641 760.715 141.264V162.271C760.715 164.894 761.413 166.925 762.809 168.363C764.248 169.802 766.215 170.521 768.711 170.521C771.208 170.521 773.133 169.802 774.487 168.363C775.883 166.925 776.581 164.894 776.581 162.271V156.559H767.188V151.355H782.293V162.271C782.293 164.979 781.743 167.348 780.643 169.379C779.543 171.367 777.977 172.912 775.946 174.012C773.915 175.069 771.504 175.598 768.711 175.598Z" fill="#FFF06F"/>
<path d="M692.35 175.471C689.557 175.471 687.146 174.942 685.115 173.885C683.084 172.827 681.498 171.304 680.355 169.315C679.255 167.284 678.705 164.894 678.705 162.144V152.878C678.705 150.086 679.255 147.695 680.355 145.707C681.498 143.718 683.084 142.195 685.115 141.137C687.146 140.079 689.557 139.55 692.35 139.55C695.142 139.55 697.554 140.079 699.585 141.137C701.616 142.195 703.181 143.718 704.281 145.707C705.424 147.695 705.995 150.064 705.995 152.815V162.144C705.995 164.894 705.424 167.284 704.281 169.315C703.181 171.304 701.616 172.827 699.585 173.885C697.554 174.942 695.142 175.471 692.35 175.471ZM692.35 170.394C694.846 170.394 696.792 169.696 698.189 168.3C699.585 166.904 700.283 164.852 700.283 162.144V152.878C700.283 150.17 699.585 148.118 698.189 146.722C696.792 145.326 694.846 144.628 692.35 144.628C689.896 144.628 687.95 145.326 686.511 146.722C685.115 148.118 684.417 150.17 684.417 152.878V162.144C684.417 164.852 685.115 166.904 686.511 168.3C687.95 169.696 689.896 170.394 692.35 170.394Z" fill="#FFF06F"/>
<path d="M642.301 174.964V140.058H647.886V146.722H649.219L647.379 150.847C647.379 147.082 648.182 144.247 649.79 142.343C651.44 140.397 653.873 139.424 657.089 139.424C660.77 139.424 663.689 140.587 665.847 142.914C668.047 145.199 669.147 148.309 669.147 152.243V154.338H663.435V152.751C663.435 150.001 662.758 147.907 661.404 146.468C660.093 144.987 658.21 144.247 655.756 144.247C653.344 144.247 651.44 144.987 650.044 146.468C648.69 147.949 648.013 150.043 648.013 152.751V174.964H642.301Z" fill="#FFF06F"/>
<path d="M614.212 175.598C610.742 175.598 607.929 174.435 605.771 172.108C603.655 169.781 602.598 166.629 602.598 162.651V152.434C602.598 148.414 603.655 145.241 605.771 142.914C607.886 140.587 610.7 139.424 614.212 139.424C617.089 139.424 619.394 140.206 621.129 141.772C622.864 143.337 623.731 145.432 623.731 148.055L622.589 146.722H623.858L623.731 138.789V128.635H629.443V174.964H623.731V168.3H622.589L623.731 166.967C623.731 169.633 622.864 171.748 621.129 173.313C619.394 174.837 617.089 175.598 614.212 175.598ZM616.115 170.648C618.485 170.648 620.346 169.908 621.7 168.427C623.054 166.946 623.731 164.894 623.731 162.271V152.751C623.731 150.128 623.054 148.076 621.7 146.595C620.346 145.114 618.485 144.374 616.115 144.374C613.704 144.374 611.8 145.093 610.404 146.532C609.007 147.97 608.309 150.043 608.309 152.751V162.271C608.309 164.979 609.007 167.052 610.404 168.49C611.8 169.929 613.704 170.648 616.115 170.648Z" fill="#FFF06F"/>
<path d="M564.988 174.964V140.058H570.7V146.722H571.906L570.7 148.055C570.7 145.305 571.525 143.189 573.175 141.708C574.825 140.185 577.11 139.424 580.029 139.424C583.541 139.424 586.333 140.502 588.406 142.66C590.48 144.818 591.516 147.759 591.516 151.482V174.964H585.804V152.116C585.804 149.62 585.127 147.716 583.773 146.405C582.462 145.051 580.664 144.374 578.379 144.374C576.01 144.374 574.127 145.093 572.731 146.532C571.377 147.97 570.7 150.043 570.7 152.751V174.964H564.988Z" fill="#FFF06F"/>
<path d="M537.089 175.598C533.408 175.598 530.509 174.667 528.394 172.806C526.279 170.902 525.221 168.342 525.221 165.127C525.221 161.869 526.279 159.309 528.394 157.447C530.509 155.586 533.365 154.655 536.962 154.655H547.751V151.164C547.751 149.007 547.095 147.357 545.783 146.214C544.514 145.03 542.695 144.437 540.325 144.437C538.252 144.437 536.517 144.882 535.121 145.77C533.725 146.616 532.921 147.78 532.71 149.261H526.998C527.379 146.257 528.796 143.866 531.25 142.089C533.704 140.312 536.771 139.424 540.452 139.424C544.472 139.424 547.645 140.46 549.972 142.533C552.299 144.606 553.462 147.42 553.462 150.974V174.964H547.878V168.3H546.926L547.878 167.348C547.878 169.886 546.883 171.896 544.895 173.377C542.948 174.858 540.346 175.598 537.089 175.598ZM538.485 171.092C541.193 171.092 543.414 170.415 545.149 169.061C546.883 167.707 547.751 165.973 547.751 163.857V158.907H537.089C535.185 158.907 533.683 159.436 532.583 160.494C531.483 161.551 530.933 162.99 530.933 164.809C530.933 166.756 531.588 168.3 532.9 169.442C534.254 170.542 536.115 171.092 538.485 171.092Z" fill="#FFF06F"/>
<path d="M501.002 175.471C498.633 175.471 496.56 175.112 494.783 174.392C493.048 173.631 491.652 172.573 490.594 171.219C489.579 169.865 488.965 168.257 488.754 166.396H494.465C494.719 167.623 495.396 168.596 496.496 169.315C497.639 170.034 499.141 170.394 501.002 170.394H503.668C505.91 170.394 507.581 169.95 508.681 169.061C509.781 168.131 510.331 166.904 510.331 165.38C510.331 163.9 509.824 162.736 508.808 161.89C507.835 161.001 506.376 160.409 504.429 160.113L499.733 159.351C496.306 158.759 493.746 157.701 492.054 156.178C490.404 154.613 489.579 152.349 489.579 149.387C489.579 146.257 490.573 143.845 492.561 142.153C494.55 140.418 497.533 139.55 501.51 139.55H503.922C507.264 139.55 509.951 140.333 511.982 141.899C514.012 143.464 515.239 145.58 515.662 148.245H509.951C509.697 147.145 509.062 146.278 508.047 145.643C507.031 144.966 505.656 144.628 503.922 144.628H501.51C499.352 144.628 497.766 145.03 496.75 145.833C495.777 146.637 495.29 147.843 495.29 149.451C495.29 150.889 495.714 151.947 496.56 152.624C497.406 153.301 498.739 153.788 500.558 154.084L505.254 154.845C509.02 155.438 511.749 156.538 513.441 158.146C515.176 159.753 516.043 162.08 516.043 165.127C516.043 168.342 515.007 170.881 512.934 172.742C510.903 174.562 507.814 175.471 503.668 175.471H501.002Z" fill="#FFF06F"/>
<path d="M462.948 175.471C460.579 175.471 458.506 175.112 456.729 174.392C454.994 173.631 453.598 172.573 452.54 171.219C451.525 169.865 450.911 168.257 450.7 166.396H456.412C456.665 167.623 457.342 168.596 458.442 169.315C459.585 170.034 461.087 170.394 462.948 170.394H465.614C467.856 170.394 469.528 169.95 470.628 169.061C471.728 168.131 472.278 166.904 472.278 165.38C472.278 163.9 471.77 162.736 470.755 161.89C469.781 161.001 468.322 160.409 466.376 160.113L461.679 159.351C458.252 158.759 455.692 157.701 454 156.178C452.35 154.613 451.525 152.349 451.525 149.387C451.525 146.257 452.519 143.845 454.508 142.153C456.496 140.418 459.479 139.55 463.456 139.55H465.868C469.21 139.55 471.897 140.333 473.928 141.899C475.959 143.464 477.186 145.58 477.609 148.245H471.897C471.643 147.145 471.008 146.278 469.993 145.643C468.978 144.966 467.603 144.628 465.868 144.628H463.456C461.298 144.628 459.712 145.03 458.696 145.833C457.723 146.637 457.237 147.843 457.237 149.451C457.237 150.889 457.66 151.947 458.506 152.624C459.352 153.301 460.685 153.788 462.504 154.084L467.201 154.845C470.966 155.438 473.695 156.538 475.387 158.146C477.122 159.753 477.989 162.08 477.989 165.127C477.989 168.342 476.953 170.881 474.88 172.742C472.849 174.562 469.76 175.471 465.614 175.471H462.948Z" fill="#FFF06F"/>
<path d="M425.974 175.598C423.223 175.598 420.812 175.048 418.739 173.948C416.708 172.848 415.121 171.304 413.979 169.315C412.879 167.284 412.329 164.936 412.329 162.271V152.751C412.329 150.043 412.879 147.695 413.979 145.707C415.121 143.718 416.708 142.174 418.739 141.074C420.812 139.974 423.223 139.424 425.974 139.424C428.724 139.424 431.114 139.974 433.145 141.074C435.218 142.174 436.805 143.718 437.905 145.707C439.047 147.695 439.618 150.043 439.618 152.751V158.907H417.914V162.271C417.914 165.021 418.612 167.136 420.008 168.617C421.404 170.056 423.393 170.775 425.974 170.775C428.174 170.775 429.951 170.394 431.305 169.633C432.658 168.829 433.484 167.644 433.78 166.079H439.491C439.111 168.998 437.672 171.325 435.176 173.06C432.722 174.752 429.655 175.598 425.974 175.598ZM434.034 155.099V152.751C434.034 150.001 433.335 147.885 431.939 146.405C430.585 144.924 428.597 144.183 425.974 144.183C423.393 144.183 421.404 144.924 420.008 146.405C418.612 147.885 417.914 150.001 417.914 152.751V154.592H434.478L434.034 155.099Z" fill="#FFF06F"/>
<path d="M392.68 174.964C390.649 174.964 388.872 174.562 387.349 173.758C385.826 172.954 384.641 171.811 383.795 170.331C382.948 168.85 382.525 167.115 382.525 165.127V133.839H370.784V128.635H388.237V165.127C388.237 166.565 388.639 167.707 389.443 168.554C390.247 169.358 391.326 169.759 392.68 169.759H403.786V174.964H392.68Z" fill="#FFF06F"/>
<path d="M334 174.964L346.058 128.635H353.737L365.732 174.964H359.957L356.911 162.651H342.885L339.839 174.964H334ZM344.027 157.828H355.705L352.151 143.549C351.474 140.841 350.945 138.577 350.564 136.758C350.183 134.939 349.951 133.754 349.866 133.204C349.781 133.754 349.549 134.939 349.168 136.758C348.787 138.577 348.258 140.82 347.581 143.485L344.027 157.828Z" fill="#FFF06F"/>
<path d="M204.167 297L329.469 0H363L237.698 297H204.167Z" fill="#93F6FA"/>
<path d="M151.774 241.707L0 173.777V142.181L151.774 74.25V101.738L42.3555 149.764C37.8846 151.66 33.6491 153.345 29.6489 154.819C25.8839 156.083 23.0602 156.926 21.1778 157.347C23.2955 157.768 26.3545 158.716 30.3548 160.19C34.355 161.454 38.3553 163.034 42.3555 164.93L151.774 213.271V241.707Z" fill="#93F6FA"/>
</g>
</svg>
